<svg id="Capa_1" enable-background="new 0 0 510 510" height="512" viewBox="0 0 510 510" width="512" xmlns="http://www.w3.org/2000/svg" xmlns:xlink="http://www.w3.org/1999/xlink"><linearGradient id="SVGID_1_" gradientUnits="userSpaceOnUse" x1="172.958" x2="463.473" y1="138.935" y2="537.192"><stop offset="0" stop-color="#7acbff"/><stop offset="1" stop-color="#45a2e0"/></linearGradient><linearGradient id="lg1"><stop offset="0" stop-color="#edf5ff"/><stop offset="1" stop-color="#c7e9ff"/></linearGradient><linearGradient id="SVGID_2_" gradientUnits="userSpaceOnUse" x1="153.564" x2="444.08" xlink:href="#lg1" y1="119.541" y2="517.798"/><linearGradient id="lg2"><stop offset="0" stop-color="#7acbff" stop-opacity="0"/><stop offset="1" stop-color="#2f73a0"/></linearGradient><linearGradient id="SVGID_3_" gradientUnits="userSpaceOnUse" x1="296.556" x2="65.989" xlink:href="#lg2" y1="112.77" y2="-117.798"/><linearGradient id="SVGID_4_" gradientUnits="userSpaceOnUse" x1="368.583" x2="216.452" xlink:href="#lg2" y1="283.904" y2="131.773"/><linearGradient id="SVGID_5_" gradientUnits="userSpaceOnUse" x1="112.31" x2="182.739" xlink:href="#lg1" y1="46.162" y2="116.591"/><linearGradient id="SVGID_6_" gradientUnits="userSpaceOnUse" x1="245.303" x2="245.303" xlink:href="#lg2" y1="456.987" y2="527.818"/><linearGradient id="SVGID_7_" gradientUnits="userSpaceOnUse" x1="209.911" x2="297.36" y1="125.232" y2="212.681"><stop offset="0" stop-color="#e4e08e"/><stop offset="1" stop-color="#6fa953"/></linearGradient><linearGradient id="lg3"><stop offset="0" stop-color="#43765a" stop-opacity="0"/><stop offset="1" stop-color="#43765a"/></linearGradient><linearGradient id="SVGID_8_" gradientUnits="userSpaceOnUse" x1="297.302" x2="230.535" xlink:href="#lg3" y1="189.45" y2="122.683"/><linearGradient id="SVGID_9_" gradientUnits="userSpaceOnUse" x1="258.624" x2="244.252" xlink:href="#lg3" y1="244.094" y2="178.498"/><linearGradient id="SVGID_10_" gradientUnits="userSpaceOnUse" x1="225.002" x2="259.992" xlink:href="#lg1" y1="137.277" y2="137.277"/><linearGradient id="SVGID_11_" gradientUnits="userSpaceOnUse" x1="225.002" x2="259.992" xlink:href="#lg1" y1="198.403" y2="198.403"/><g><path d="m413.755 19.394h-215.853c-9.415 0-18.444 3.74-25.101 10.397l-77.433 77.432c-6.657 6.657-10.397 15.687-10.397 25.101v347.008c0 16.867 13.8 30.668 30.668 30.668h298.125c16.862 0 30.658-13.796 30.658-30.658v-429.281c0-16.867-13.8-30.667-30.667-30.667z" fill="url(#SVGID_1_)"/><g><path d="m394.361 0h-215.852c-9.415 0-18.444 3.74-25.101 10.397l-77.433 77.433c-6.657 6.657-10.397 15.687-10.397 25.101v347.008c0 16.867 13.8 30.668 30.668 30.668h298.125c16.862 0 30.658-13.796 30.658-30.658v-429.281c0-16.868-13.801-30.668-30.668-30.668z" fill="url(#SVGID_2_)"/><g><g><g fill="#45a2e0"><g><path d="m255.788 322.602h-71.914c-5.27 0-9.542-4.272-9.542-9.542v-19.084c0-5.27 4.272-9.542 9.542-9.542h71.914c5.27 0 9.542 4.272 9.542 9.542v19.084c0 5.27-4.272 9.542-9.542 9.542z"/><path d="m364.326 322.602h-67.957c-5.27 0-9.542-4.272-9.542-9.542v-19.084c0-5.27 4.272-9.542 9.542-9.542h67.957c5.27 0 9.542 4.272 9.542 9.542v19.084c0 5.27-4.273 9.542-9.542 9.542z"/></g><g><path d="m327.406 380.089h36.919c5.27 0 9.542-4.272 9.542-9.542v-19.084c0-5.27-4.272-9.542-9.542-9.542h-36.919c-5.27 0-9.542 4.272-9.542 9.542v19.084c0 5.27 4.273 9.542 9.542 9.542z"/><path d="m183.874 380.089h102.952c5.27 0 9.542-4.272 9.542-9.542v-19.084c0-5.27-4.272-9.542-9.542-9.542h-102.952c-5.27 0-9.542 4.272-9.542 9.542v19.084c.001 5.27 4.273 9.542 9.542 9.542z"/></g><g><path d="m255.788 437.575h-71.914c-5.27 0-9.542-4.272-9.542-9.542v-19.083c0-5.27 4.272-9.542 9.542-9.542h71.914c5.27 0 9.542 4.272 9.542 9.542v19.084c0 5.269-4.272 9.541-9.542 9.541z"/><path d="m364.326 437.575h-67.957c-5.27 0-9.542-4.272-9.542-9.542v-19.083c0-5.27 4.272-9.542 9.542-9.542h67.957c5.27 0 9.542 4.272 9.542 9.542v19.084c0 5.269-4.273 9.541-9.542 9.541z"/></g></g></g><g fill="#45a2e0"><circle cx="136.064" cy="303.76" r="19.326"/><circle cx="136.064" cy="361.005" r="19.326"/><circle cx="136.064" cy="418.25" r="19.326"/></g></g><path d="m425.029 459.948v-429.28c0-16.868-13.801-30.668-30.668-30.668h-215.852c-9.415 0-18.444 3.74-25.101 10.397l-77.433 77.433c-4.939 4.939-8.268 11.185-9.66 17.924l358.414 358.414c.192-1.381.3-2.788.3-4.22z" fill="url(#SVGID_3_)"/><path d="m310.187 103.013c-15.897-17.891-39.067-24.88-64.884-24.88-47.931 0-82.491 34.56-82.491 82.491 0 25.816 6.988 48.986 24.879 64.883l237.196 237.196c.082-.909.14-1.826.14-2.756v-242.092z" fill="url(#SVGID_4_)"/><path d="m66.629 104.319c-.114.493-.218.973-.314 1.436h93.935c6.651 0 12.043-5.392 12.043-12.043v-93.153c-.734.131-1.506.284-2.301.46-7.003 1.549-13.387 5.149-18.458 10.22l-74.702 74.702c-5.05 5.051-8.597 11.418-10.203 18.378z" fill="url(#SVGID_5_)"/><path d="m65.578 430.195v29.744c0 16.867 13.8 30.668 30.668 30.668h298.125c16.862 0 30.658-13.796 30.658-30.658v-29.753h-359.451z" fill="url(#SVGID_6_)"/><g><circle cx="245.303" cy="160.624" fill="url(#SVGID_7_)" r="86.786"/><g><path d="m331.824 167.423c-1.52 19.679-9.607 37.517-22.078 51.331-6.324 7.004-13.775 12.979-22.067 17.628l-52.663-52.669-16.672-16.672c-8.142-7.33-12.255-17.949-12.255-29.767 0-22.117 16.921-39.032 39.037-39.032 11.818 0 22.437 4.107 29.767 12.25z" fill="url(#SVGID_8_)"/><path d="m309.746 218.754c-6.324 7.004-13.775 12.979-22.067 17.628-12.531 7.026-26.987 11.028-42.376 11.028-5.152 0-10.199-.448-15.102-1.31l-33.952-33.952c-2.637-1.52-2.521-5.246-.265-7.75.022-.022.044-.044.066-.066 10.182-11.31 23.454-18.468 38.965-20.619 3.272-.453 6.644-.685 10.105-.685 19.115 0 36.351 6.943 48.617 19.718z" fill="url(#SVGID_9_)"/></g><g><circle cx="245.167" cy="137.277" fill="url(#SVGID_10_)" r="40.046"/><path d="m295.587 204.703c-.247-.278-.497-.555-.748-.829-12.319-13.436-30.007-21.853-49.676-21.853-19.882 0-37.754 8.611-50.084 22.309-.021.023-.042.046-.062.069-2.77 3.074-.794 7.994 3.323 8.404 12.269 1.223 29.586 1.982 48.784 1.982 17.344 0 33.152-.62 45.092-1.643 4.168-.357 6.149-5.311 3.371-8.439z" fill="url(#SVGID_11_)"/></g></g></g></g></svg>